<?xml version="1.0" encoding="utf-8"?>
<!-- Generator: Adobe Illustrator 27.0.0, SVG Export Plug-In . SVG Version: 6.00 Build 0)  -->
<svg version="1.1" id="Слой_1" xmlns="http://www.w3.org/2000/svg" xmlns:xlink="http://www.w3.org/1999/xlink" x="0px" y="0px"
	 viewBox="0 0 88.4 36.9" style="enable-background:new 0 0 88.4 36.9;" xml:space="preserve">
<style type="text/css">
	.st0{fill:none;}
	.st1{fill:#1D1D1F;}
</style>
<g>
	<rect x="70.2" y="25.1" class="st0" width="1.4" height="2"/>
	<path class="st0" d="M75,14.1h-1.7c-0.3,0-0.5,0.2-0.6,0.5c0,0,0,0,0,0.1v10.4H75V14.1z"/>
	<path class="st0" d="M75.5,27.1h-2.7v8.2c0,0.3,0.2,0.5,0.5,0.6c0,0,0,0,0.1,0h13.4c0.3,0,0.5-0.2,0.6-0.5c0,0,0,0,0-0.1V14.7
		c0-0.3-0.2-0.5-0.5-0.6c0,0,0,0-0.1,0H77v11.5C77,26.4,76.3,27.1,75.5,27.1z"/>
	<path class="st1" d="M72.8,14.6c0-0.3,0.3-0.5,0.6-0.5H75V13h-1.7c-0.9,0-1.7,0.7-1.7,1.7v10.4h1.1V14.6
		C72.8,14.7,72.8,14.6,72.8,14.6z"/>
	<polygon class="st1" points="48,28.1 48,36.1 60,36.1 60,28.1 60,27.6 48,27.6 	"/>
	<path class="st1" d="M42,28.1h-2v6h-1H6v-20h24v-2H5.5c-1,0-1.5,0.5-1.5,1.5v20.5H0c0.1,0.1,0.4,0.3,0.4,0.3c0,0,2.1,1.3,4.6,1.4
		C7.6,36,10,36.1,10,36.1l13,0c0,0,8.3,0,11.6,0c0.9,0,1.4,0,1.4,0c0,0,0,0,0,0c0.3,0,2.7-0.1,5.1-0.3c2.6-0.2,4.6-1.4,4.6-1.4
		c0.1,0,0.2-0.2,0.2-0.3h-4V28.1z"/>
	<path class="st1" d="M86.7,13H77v1.1h9.7c0,0,0,0,0.1,0c0.3,0,0.5,0.3,0.5,0.6v20.7c0,0,0,0,0,0.1c0,0.3-0.3,0.5-0.6,0.5H73.3
		c0,0,0,0-0.1,0c-0.3,0-0.5-0.3-0.5-0.6v-8.2h-1.1v8.2c0,0.9,0.7,1.7,1.7,1.7h13.4c0.9,0,1.7-0.7,1.7-1.7V14.7
		C88.4,13.8,87.7,13,86.7,13z"/>
	<rect x="71.7" y="25.1" class="st1" width="1.1" height="2"/>
	<rect x="75" y="13" class="st1" width="2" height="1.1"/>
	<g>
		<path class="st1" d="M77,10.1V9.6V9.1V1.6c0-0.8-0.7-1.5-1.5-1.5h-43c-0.8,0-1.5,0.7-1.5,1.5v9.5v0.5v0.5v2v0.5v0.5v10.5
			c0,0.8,0.7,1.5,1.5,1.5H39h0.5H40h2h0.5H43h4h0.5h13H61h3h0.5H65h5.2v-2H65h-0.5H64H43h-0.5H42h-2h-0.5H39h-6v-10v-0.5v-0.5v-2
			v-0.5v-0.5v-9h42v7v0.5v0.5v1.5h2V10.1z"/>
	</g>
</g>
<path class="st0" d="M-2.4-13.9h103v54h-103V-13.9z"/>
</svg>
